<?xml version="1.0" encoding="UTF-8" standalone="no"?>
<svg
   xmlns:dc="http://purl.org/dc/elements/1.1/"
   xmlns:cc="http://creativecommons.org/ns#"
   xmlns:rdf="http://www.w3.org/1999/02/22-rdf-syntax-ns#"
   xmlns:svg="http://www.w3.org/2000/svg"
   xmlns="http://www.w3.org/2000/svg"
   xmlns:sodipodi="http://sodipodi.sourceforge.net/DTD/sodipodi-0.dtd"
   xmlns:inkscape="http://www.inkscape.org/namespaces/inkscape"
   viewBox="0 0 512 512"
   height="100%"
   width="100%"
   version="1.1"
   inkscape:version="0.91 r13725"
   sodipodi:docname="rss.svg">
  <defs
     id="defs7" />
  <sodipodi:namedview
     pagecolor="#ffffff"
     bordercolor="#666666"
     borderopacity="1"
     objecttolerance="10"
     gridtolerance="10"
     guidetolerance="10"
     inkscape:pageopacity="0"
     inkscape:pageshadow="2"
     inkscape:window-width="1366"
     inkscape:window-height="705"
     id="namedview5"
     showgrid="false"
     inkscape:zoom="0.63477373"
     inkscape:cx="118.23785"
     inkscape:cy="205.01948"
     inkscape:window-x="0"
     inkscape:window-y="30"
     inkscape:window-maximized="1" />
  <g
     id="rss"
     stroke="inherit"
     fill="inherit">
    <path
       d="M 0.079208,95.750982 0.077608,0 C 277.7054,12.112291 499.9333,234.41455 512.00003,512 l -95.69484,-0.0135 C 404.38973,287.20687 224.87827,107.69268 0.078772,95.753775 Z"
       inkscape:connector-curvature="0" />
    <path
       d="M 0.002328,263.38444 C 134.10939,270.82857 241.16231,377.90953 248.57456,511.99535 l 85.9891,0.003 C 323.91654,331.83302 180.18636,188.08902 0,177.40684 Z"
       inkscape:connector-curvature="0" />
    <path
       d="M 135.85481,443.88771 A 67.401451,67.397818 0 0 1 68.45336,511.28553 67.401451,67.397818 0 0 1 1.051911,443.88771 67.401451,67.397818 0 0 1 68.45336,376.48989 a 67.401451,67.397818 0 0 1 67.40145,67.39782 z"
       inkscape:connector-curvature="0" />
  </g>
  <metadata
     id="metadata3424">
    <rdf:RDF>
      <cc:Work
         rdf:about="">
        <dc:title></dc:title>
      </cc:Work>
    </rdf:RDF>
  </metadata>
</svg>
